<svg width="501" height="374" viewBox="0 0 501 374" fill="none" xmlns="http://www.w3.org/2000/svg">
<path d="M146.997 77.9275C146.024 76.2307 147.249 74.1163 149.205 74.1163H159.895C161.257 74.1163 162.516 74.8426 163.199 76.022L222.821 179.058C223.233 179.77 223.994 180.209 224.817 180.209V180.209C225.652 180.209 226.421 179.757 226.829 179.029L247.865 141.445C248.269 140.723 249.033 140.275 249.861 140.275V140.275C250.689 140.275 251.452 140.723 251.857 141.445L272.965 179.159C273.328 179.807 274.013 180.209 274.756 180.209V180.209C275.487 180.209 276.163 179.82 276.53 179.188L336.705 75.6986C337.275 74.719 338.323 74.1163 339.456 74.1163H351.122C353.585 74.1163 355.114 76.7959 353.861 78.9167L278.782 205.93C277.942 207.351 276.415 208.222 274.765 208.222V208.222C273.094 208.222 271.55 207.328 270.718 205.878L252.545 174.206C251.76 172.837 250.131 172.194 248.622 172.658V172.658C247.791 172.914 247.091 173.48 246.667 174.238L229.123 205.605C228.219 207.221 226.512 208.222 224.661 208.222V208.222C222.829 208.222 221.137 207.242 220.225 205.652L146.997 77.9275Z" fill="#FFD700"/>
<path d="M187.837 62.6573C187.121 61.3848 188.04 59.8118 189.501 59.8118H309.446C310.945 59.8118 311.859 61.461 311.065 62.7324L304.51 73.2192C304.162 73.7773 303.55 74.1164 302.892 74.1164H216.926C215.464 74.1164 214.544 75.693 215.265 76.9656L222.044 88.9424C222.383 89.541 223.018 89.911 223.705 89.911H292.555C294.034 89.911 294.951 91.5196 294.198 92.7921L287.815 103.577C287.472 104.158 286.847 104.514 286.173 104.514H233.675C232.199 104.514 231.281 106.116 232.028 107.389L245.866 130.963C246.216 131.561 246.216 132.301 245.865 132.898L238.016 146.24C237.692 146.791 237.1 147.129 236.461 147.129V147.129C235.81 147.129 235.209 146.778 234.89 146.211L187.837 62.6573Z" fill="#FFD700"/>
<path d="M46.7973 279.972C46.7973 280.353 46.6446 280.697 46.3392 281.002C46.1101 281.231 45.8047 281.346 45.4229 281.346H20.7982C20.4164 281.346 20.2256 281.537 20.2256 281.919V303.565C20.2256 303.947 20.4164 304.138 20.7982 304.138H35.344C35.7257 304.138 36.0312 304.291 36.2602 304.596C36.5656 304.825 36.7184 305.131 36.7184 305.512V314.332C36.7184 314.713 36.5656 315.057 36.2602 315.362C36.0312 315.591 35.7257 315.706 35.344 315.706H20.7982C20.4164 315.706 20.2256 315.897 20.2256 316.279V348.692C20.2256 349.073 20.0728 349.417 19.7674 349.722C19.5384 349.951 19.2329 350.066 18.8512 350.066H8.31408C7.93231 350.066 7.58871 349.951 7.28328 349.722C7.05422 349.417 6.93968 349.073 6.93968 348.692V271.267C6.93968 270.885 7.05422 270.58 7.28328 270.351C7.58871 270.045 7.93231 269.893 8.31408 269.893H45.4229C45.8047 269.893 46.1101 270.045 46.3392 270.351C46.6446 270.58 46.7973 270.885 46.7973 271.267V279.972ZM69.4507 350.982C63.1132 350.982 58.1119 349.302 54.4469 345.943C50.8582 342.583 49.0638 338.04 49.0638 332.313V309.292C49.0638 303.642 50.8963 299.137 54.5614 295.777C58.2265 292.341 63.1896 290.623 69.4507 290.623C75.7882 290.623 80.7895 292.341 84.4546 295.777C88.1197 299.137 89.9522 303.642 89.9522 309.292V332.313C89.9522 338.04 88.1197 342.583 84.4546 345.943C80.8659 349.302 75.8646 350.982 69.4507 350.982ZM69.4507 339.414C71.5887 339.414 73.3067 338.689 74.6047 337.238C75.9791 335.711 76.6663 333.726 76.6663 331.282V310.208C76.6663 307.841 75.9791 305.894 74.6047 304.367C73.3067 302.84 71.5887 302.076 69.4507 302.076C67.3128 302.076 65.5948 302.84 64.2967 304.367C62.9987 305.818 62.3497 307.765 62.3497 310.208V331.282C62.3497 333.726 62.9987 335.711 64.2967 337.238C65.5948 338.689 67.3128 339.414 69.4507 339.414ZM123.355 290.852C125.416 290.852 127.02 291.234 128.165 291.998C128.776 292.379 129.005 292.952 128.852 293.716L127.02 304.367C126.943 305.283 126.409 305.551 125.416 305.169C124.347 304.863 123.355 304.711 122.439 304.711C121.522 304.711 120.682 304.825 119.919 305.054C117.781 305.36 116.025 306.581 114.65 308.719C113.352 310.781 112.703 313.263 112.703 316.164V348.577C112.703 348.959 112.55 349.302 112.245 349.608C112.016 349.837 111.711 349.951 111.329 349.951H100.792C100.41 349.951 100.066 349.837 99.7609 349.608C99.5318 349.302 99.4173 348.959 99.4173 348.577V292.914C99.4173 292.532 99.5318 292.227 99.7609 291.998C100.066 291.692 100.41 291.539 100.792 291.539H111.329C111.711 291.539 112.016 291.692 112.245 291.998C112.55 292.227 112.703 292.532 112.703 292.914V298.182C112.703 298.488 112.78 298.679 112.932 298.755C113.085 298.755 113.199 298.602 113.276 298.297C115.337 293.334 118.697 290.852 123.355 290.852ZM159.831 299.557C159.831 299.938 159.678 300.282 159.373 300.588C159.144 300.817 158.838 300.931 158.457 300.931H151.355C150.974 300.931 150.783 301.122 150.783 301.504V331.512C150.783 334.184 151.279 336.055 152.272 337.124C153.264 338.116 154.753 338.574 156.739 338.498H157.54C157.922 338.498 158.227 338.651 158.457 338.956C158.762 339.185 158.915 339.491 158.915 339.872V348.692C158.915 349.073 158.762 349.417 158.457 349.722C158.227 349.951 157.922 350.066 157.54 350.066H153.646C148.454 350.066 144.522 349.111 141.849 347.203C139.253 345.294 137.955 341.705 137.955 336.436V301.504C137.955 301.122 137.764 300.931 137.382 300.931H133.374C132.992 300.931 132.648 300.817 132.343 300.588C132.114 300.282 131.999 299.938 131.999 299.557V292.914C131.999 292.532 132.114 292.227 132.343 291.998C132.648 291.692 132.992 291.539 133.374 291.539H137.382C137.764 291.539 137.955 291.348 137.955 290.967V278.368C137.955 277.986 138.07 277.681 138.299 277.452C138.604 277.146 138.948 276.994 139.329 276.994H149.408C149.79 276.994 150.096 277.146 150.325 277.452C150.63 277.681 150.783 277.986 150.783 278.368V290.967C150.783 291.348 150.974 291.539 151.355 291.539H158.457C158.838 291.539 159.144 291.692 159.373 291.998C159.678 292.227 159.831 292.532 159.831 292.914V299.557ZM194.102 292.914C194.102 292.532 194.217 292.227 194.446 291.998C194.751 291.692 195.095 291.539 195.477 291.539H206.014C206.396 291.539 206.701 291.692 206.93 291.998C207.236 292.227 207.388 292.532 207.388 292.914V348.692C207.388 349.073 207.236 349.417 206.93 349.722C206.701 349.951 206.396 350.066 206.014 350.066H195.477C195.095 350.066 194.751 349.951 194.446 349.722C194.217 349.417 194.102 349.073 194.102 348.692V346.172C194.102 345.943 194.026 345.79 193.873 345.714C193.721 345.637 193.568 345.714 193.415 345.943C191.201 349.226 187.65 350.868 182.764 350.868C178.106 350.868 174.326 349.493 171.425 346.744C168.6 343.919 167.187 339.605 167.187 333.802V292.914C167.187 292.532 167.302 292.227 167.531 291.998C167.836 291.692 168.18 291.539 168.561 291.539H179.099C179.48 291.539 179.786 291.692 180.015 291.998C180.32 292.227 180.473 292.532 180.473 292.914V330.939C180.473 336.666 182.687 339.529 187.116 339.529C189.33 339.529 191.048 338.727 192.27 337.124C193.492 335.444 194.102 333.191 194.102 330.366V292.914ZM242.948 290.623C247.911 290.623 251.653 292.303 254.172 295.663C256.769 298.946 258.067 303.642 258.067 309.75V348.692C258.067 349.073 257.914 349.417 257.608 349.722C257.379 349.951 257.074 350.066 256.692 350.066H246.155C245.773 350.066 245.43 349.951 245.124 349.722C244.895 349.417 244.781 349.073 244.781 348.692V310.781C244.781 308.032 244.208 305.894 243.063 304.367C241.917 302.84 240.276 302.076 238.138 302.076C235.923 302.076 234.205 302.878 232.984 304.482C231.762 306.085 231.151 308.299 231.151 311.125V348.692C231.151 349.073 230.999 349.417 230.693 349.722C230.464 349.951 230.159 350.066 229.777 350.066H219.24C218.858 350.066 218.514 349.951 218.209 349.722C217.98 349.417 217.865 349.073 217.865 348.692V292.914C217.865 292.532 217.98 292.227 218.209 291.998C218.514 291.692 218.858 291.539 219.24 291.539H229.777C230.159 291.539 230.464 291.692 230.693 291.998C230.999 292.227 231.151 292.532 231.151 292.914V295.204C231.151 295.434 231.228 295.586 231.38 295.663C231.609 295.663 231.838 295.51 232.068 295.204C234.664 292.15 238.29 290.623 242.948 290.623ZM307.826 324.296C307.826 324.678 307.673 325.021 307.368 325.327C307.139 325.556 306.833 325.67 306.452 325.67H281.14C280.758 325.67 280.567 325.861 280.567 326.243V331.397C280.567 333.764 281.216 335.711 282.514 337.238C283.812 338.765 285.492 339.529 287.554 339.529C289.31 339.529 290.799 338.994 292.02 337.925C293.318 336.78 294.158 335.329 294.54 333.573C294.769 332.81 295.265 332.428 296.029 332.428L306.222 332.886C306.604 332.886 306.91 333.039 307.139 333.344C307.444 333.573 307.559 333.917 307.482 334.375C306.948 339.72 305.001 343.843 301.641 346.744C298.281 349.57 293.586 350.982 287.554 350.982C281.292 350.982 276.329 349.341 272.664 346.057C269.075 342.698 267.281 338.154 267.281 332.428V309.178C267.281 303.604 269.075 299.137 272.664 295.777C276.329 292.341 281.292 290.623 287.554 290.623C293.815 290.623 298.74 292.341 302.328 295.777C305.993 299.137 307.826 303.604 307.826 309.178V324.296ZM287.554 302.076C285.492 302.076 283.812 302.84 282.514 304.367C281.216 305.894 280.567 307.841 280.567 310.208V315.362C280.567 315.744 280.758 315.935 281.14 315.935H294.082C294.464 315.935 294.655 315.744 294.655 315.362V310.208C294.655 307.765 294.006 305.818 292.708 304.367C291.409 302.84 289.691 302.076 287.554 302.076ZM354.095 350.066C353.178 350.066 352.682 349.646 352.606 348.806L337.373 271.382L337.258 270.923C337.258 270.236 337.678 269.893 338.518 269.893H349.513C350.43 269.893 350.926 270.313 351.002 271.152L359.02 318.913C359.096 319.142 359.211 319.256 359.363 319.256C359.516 319.256 359.631 319.142 359.707 318.913L366.922 271.152C366.999 270.313 367.495 269.893 368.411 269.893H377.574C378.49 269.893 378.987 270.313 379.063 271.152L386.851 318.913C386.928 319.142 387.042 319.256 387.195 319.256C387.348 319.256 387.462 319.142 387.538 318.913L394.754 271.152C394.83 270.313 395.327 269.893 396.243 269.893H406.895C407.887 269.893 408.307 270.389 408.154 271.382L393.609 348.806C393.532 349.646 393.036 350.066 392.12 350.066H382.384C381.468 350.066 380.972 349.646 380.896 348.806L373.222 300.129C373.145 299.824 373.031 299.671 372.878 299.671C372.725 299.671 372.611 299.824 372.535 300.129L365.434 348.806C365.357 349.646 364.861 350.066 363.945 350.066H354.095ZM450.545 324.296C450.545 324.678 450.393 325.021 450.087 325.327C449.858 325.556 449.553 325.67 449.171 325.67H423.859C423.477 325.67 423.286 325.861 423.286 326.243V331.397C423.286 333.764 423.935 335.711 425.233 337.238C426.531 338.765 428.211 339.529 430.273 339.529C432.029 339.529 433.518 338.994 434.74 337.925C436.038 336.78 436.878 335.329 437.259 333.573C437.488 332.81 437.985 332.428 438.748 332.428L448.942 332.886C449.324 332.886 449.629 333.039 449.858 333.344C450.163 333.573 450.278 333.917 450.202 334.375C449.667 339.72 447.72 343.843 444.36 346.744C441.001 349.57 436.305 350.982 430.273 350.982C424.012 350.982 419.049 349.341 415.383 346.057C411.795 342.698 410 338.154 410 332.428V309.178C410 303.604 411.795 299.137 415.383 295.777C419.049 292.341 424.012 290.623 430.273 290.623C436.534 290.623 441.459 292.341 445.048 295.777C448.713 299.137 450.545 303.604 450.545 309.178V324.296ZM430.273 302.076C428.211 302.076 426.531 302.84 425.233 304.367C423.935 305.894 423.286 307.841 423.286 310.208V315.362C423.286 315.744 423.477 315.935 423.859 315.935H436.801C437.183 315.935 437.374 315.744 437.374 315.362V310.208C437.374 307.765 436.725 305.818 435.427 304.367C434.129 302.84 432.411 302.076 430.273 302.076ZM460.599 350.066C460.217 350.066 459.874 349.951 459.568 349.722C459.339 349.417 459.225 349.073 459.225 348.692V271.267C459.225 270.885 459.339 270.58 459.568 270.351C459.874 270.045 460.217 269.893 460.599 269.893H471.136C471.518 269.893 471.823 270.045 472.052 270.351C472.358 270.58 472.511 270.885 472.511 271.267V348.692C472.511 349.073 472.358 349.417 472.052 349.722C471.823 349.951 471.518 350.066 471.136 350.066H460.599ZM483.416 350.066C483.035 350.066 482.691 349.951 482.386 349.722C482.156 349.417 482.042 349.073 482.042 348.692V271.267C482.042 270.885 482.156 270.58 482.386 270.351C482.691 270.045 483.035 269.893 483.416 269.893H493.953C494.335 269.893 494.641 270.045 494.87 270.351C495.175 270.58 495.328 270.885 495.328 271.267V348.692C495.328 349.073 495.175 349.417 494.87 349.722C494.641 349.951 494.335 350.066 493.953 350.066H483.416Z" fill="#FFD700"/>
</svg>
