<svg width="501" height="375" viewBox="0 0 501 375" fill="none" xmlns="http://www.w3.org/2000/svg">
<path d="M146.528 78.0306C145.554 76.3316 146.78 74.2145 148.739 74.2145H159.443C160.807 74.2145 162.068 74.9417 162.752 76.1227L222.452 179.294C222.865 180.008 223.627 180.447 224.451 180.447V180.447C225.287 180.447 226.058 179.995 226.466 179.266L247.529 141.632C247.934 140.909 248.699 140.461 249.528 140.461V140.461C250.357 140.461 251.122 140.909 251.527 141.632L272.663 179.396C273.026 180.045 273.712 180.447 274.456 180.447V180.447C275.188 180.447 275.865 180.058 276.233 179.425L336.488 75.7988C337.058 74.818 338.107 74.2145 339.242 74.2145H350.923C353.39 74.2145 354.921 76.8976 353.665 79.0212L278.487 206.203C277.646 207.625 276.117 208.497 274.465 208.497V208.497C272.792 208.497 271.246 207.602 270.413 206.15L252.216 174.436C251.43 173.065 249.798 172.422 248.287 172.887V172.887C247.456 173.143 246.755 173.709 246.33 174.469L228.762 205.877C227.857 207.495 226.148 208.497 224.295 208.497V208.497C222.46 208.497 220.766 207.516 219.854 205.924L146.528 78.0306Z" fill="#222831"/>
<path d="M187.423 62.7403C186.705 61.4661 187.626 59.891 189.088 59.891H309.192C310.694 59.891 311.609 61.5424 310.813 62.8155L304.25 73.3161C303.901 73.875 303.289 74.2145 302.629 74.2145H216.55C215.086 74.2145 214.165 75.7933 214.887 77.0675L221.675 89.0602C222.014 89.6595 222.65 90.03 223.338 90.03H292.28C293.76 90.03 294.679 91.6408 293.925 92.915L287.533 103.714C287.189 104.295 286.564 104.652 285.888 104.652H233.321C231.843 104.652 230.924 106.257 231.672 107.531L245.528 131.137C245.879 131.735 245.879 132.476 245.527 133.073L237.668 146.434C237.344 146.985 236.751 147.324 236.111 147.324V147.324C235.459 147.324 234.857 146.972 234.537 146.404L187.423 62.7403Z" fill="#222831"/>
<path d="M46.5266 281.191C46.5266 281.573 46.3737 281.917 46.0679 282.223C45.8385 282.453 45.5327 282.567 45.1504 282.567H20.4932C20.1109 282.567 19.9198 282.758 19.9198 283.141V304.816C19.9198 305.198 20.1109 305.39 20.4932 305.39H35.0582C35.4404 305.39 35.7463 305.542 35.9756 305.848C36.2815 306.078 36.4344 306.383 36.4344 306.766V315.597C36.4344 315.979 36.2815 316.323 35.9756 316.629C35.7463 316.858 35.4404 316.973 35.0582 316.973H20.4932C20.1109 316.973 19.9198 317.164 19.9198 317.546V350.002C19.9198 350.384 19.7669 350.728 19.461 351.034C19.2317 351.263 18.9258 351.378 18.5435 351.378H7.99254C7.61026 351.378 7.2662 351.263 6.96038 351.034C6.73101 350.728 6.61632 350.384 6.61632 350.002V272.475C6.61632 272.093 6.73101 271.787 6.96038 271.558C7.2662 271.252 7.61026 271.099 7.99254 271.099H45.1504C45.5327 271.099 45.8385 271.252 46.0679 271.558C46.3737 271.787 46.5266 272.093 46.5266 272.475V281.191ZM69.2101 352.296C62.8642 352.296 57.8563 350.614 54.1863 347.25C50.5929 343.885 48.7962 339.336 48.7962 333.602V310.55C48.7962 304.893 50.6311 300.382 54.301 297.018C57.9709 293.577 62.9406 291.857 69.2101 291.857C75.556 291.857 80.5639 293.577 84.2338 297.018C87.9037 300.382 89.7386 304.893 89.7386 310.55V333.602C89.7386 339.336 87.9037 343.885 84.2338 347.25C80.6403 350.614 75.6324 352.296 69.2101 352.296ZM69.2101 340.712C71.3508 340.712 73.0711 339.986 74.3709 338.533C75.7471 337.004 76.4352 335.016 76.4352 332.57V311.468C76.4352 309.098 75.7471 307.148 74.3709 305.619C73.0711 304.09 71.3508 303.325 69.2101 303.325C67.0693 303.325 65.349 304.09 64.0492 305.619C62.7495 307.072 62.0996 309.021 62.0996 311.468V332.57C62.0996 335.016 62.7495 337.004 64.0492 338.533C65.349 339.986 67.0693 340.712 69.2101 340.712ZM123.185 292.086C125.25 292.086 126.855 292.468 128.002 293.233C128.614 293.615 128.843 294.189 128.69 294.953L126.855 305.619C126.779 306.536 126.244 306.804 125.25 306.422C124.179 306.116 123.185 305.963 122.268 305.963C121.35 305.963 120.509 306.078 119.745 306.307C117.604 306.613 115.846 307.836 114.469 309.977C113.17 312.041 112.52 314.526 112.52 317.431V349.887C112.52 350.27 112.367 350.614 112.061 350.919C111.832 351.149 111.526 351.263 111.143 351.263H100.592C100.21 351.263 99.8661 351.149 99.5603 350.919C99.331 350.614 99.2163 350.27 99.2163 349.887V294.15C99.2163 293.768 99.331 293.462 99.5603 293.233C99.8661 292.927 100.21 292.774 100.592 292.774H111.143C111.526 292.774 111.832 292.927 112.061 293.233C112.367 293.462 112.52 293.768 112.52 294.15V299.426C112.52 299.732 112.596 299.923 112.749 299.999C112.902 299.999 113.017 299.846 113.093 299.541C115.157 294.571 118.522 292.086 123.185 292.086ZM159.71 300.802C159.71 301.184 159.557 301.528 159.251 301.834C159.022 302.064 158.716 302.178 158.334 302.178H151.223C150.841 302.178 150.65 302.37 150.65 302.752V332.799C150.65 335.475 151.147 337.348 152.141 338.419C153.135 339.413 154.625 339.871 156.613 339.795H157.416C157.798 339.795 158.104 339.948 158.334 340.254C158.639 340.483 158.792 340.789 158.792 341.171V350.002C158.792 350.384 158.639 350.728 158.334 351.034C158.104 351.263 157.798 351.378 157.416 351.378H153.517C148.318 351.378 144.38 350.422 141.704 348.511C139.105 346.6 137.805 343.006 137.805 337.731V302.752C137.805 302.37 137.614 302.178 137.232 302.178H133.218C132.835 302.178 132.491 302.064 132.185 301.834C131.956 301.528 131.841 301.184 131.841 300.802V294.15C131.841 293.768 131.956 293.462 132.185 293.233C132.491 292.927 132.835 292.774 133.218 292.774H137.232C137.614 292.774 137.805 292.583 137.805 292.201V279.585C137.805 279.203 137.92 278.897 138.149 278.668C138.455 278.362 138.799 278.209 139.181 278.209H149.274C149.656 278.209 149.962 278.362 150.191 278.668C150.497 278.897 150.65 279.203 150.65 279.585V292.201C150.65 292.583 150.841 292.774 151.223 292.774H158.334C158.716 292.774 159.022 292.927 159.251 293.233C159.557 293.462 159.71 293.768 159.71 294.15V300.802ZM194.027 294.15C194.027 293.768 194.141 293.462 194.371 293.233C194.676 292.927 195.021 292.774 195.403 292.774H205.954C206.336 292.774 206.642 292.927 206.871 293.233C207.177 293.462 207.33 293.768 207.33 294.15V350.002C207.33 350.384 207.177 350.728 206.871 351.034C206.642 351.263 206.336 351.378 205.954 351.378H195.403C195.021 351.378 194.676 351.263 194.371 351.034C194.141 350.728 194.027 350.384 194.027 350.002V347.479C194.027 347.25 193.95 347.097 193.797 347.02C193.644 346.944 193.491 347.02 193.338 347.25C191.121 350.537 187.566 352.181 182.673 352.181C178.009 352.181 174.224 350.805 171.319 348.052C168.49 345.223 167.076 340.904 167.076 335.093V294.15C167.076 293.768 167.19 293.462 167.42 293.233C167.726 292.927 168.07 292.774 168.452 292.774H179.003C179.385 292.774 179.691 292.927 179.92 293.233C180.226 293.462 180.379 293.768 180.379 294.15V332.226C180.379 337.96 182.596 340.827 187.031 340.827C189.248 340.827 190.968 340.024 192.192 338.419C193.415 336.737 194.027 334.481 194.027 331.652V294.15ZM242.937 291.857C247.907 291.857 251.653 293.539 254.176 296.903C256.776 300.191 258.075 304.893 258.075 311.009V350.002C258.075 350.384 257.922 350.728 257.617 351.034C257.387 351.263 257.081 351.378 256.699 351.378H246.148C245.766 351.378 245.422 351.263 245.116 351.034C244.887 350.728 244.772 350.384 244.772 350.002V312.041C244.772 309.289 244.199 307.148 243.052 305.619C241.905 304.09 240.261 303.325 238.12 303.325C235.903 303.325 234.183 304.128 232.959 305.734C231.736 307.339 231.124 309.556 231.124 312.385V350.002C231.124 350.384 230.972 350.728 230.666 351.034C230.436 351.263 230.131 351.378 229.748 351.378H219.197C218.815 351.378 218.471 351.263 218.165 351.034C217.936 350.728 217.821 350.384 217.821 350.002V294.15C217.821 293.768 217.936 293.462 218.165 293.233C218.471 292.927 218.815 292.774 219.197 292.774H229.748C230.131 292.774 230.436 292.927 230.666 293.233C230.972 293.462 231.124 293.768 231.124 294.15V296.444C231.124 296.674 231.201 296.826 231.354 296.903C231.583 296.903 231.813 296.75 232.042 296.444C234.641 293.386 238.273 291.857 242.937 291.857ZM307.901 325.574C307.901 325.956 307.748 326.3 307.442 326.606C307.212 326.836 306.907 326.95 306.524 326.95H281.179C280.797 326.95 280.606 327.141 280.606 327.524V332.685C280.606 335.055 281.255 337.004 282.555 338.533C283.855 340.063 285.537 340.827 287.601 340.827C289.36 340.827 290.851 340.292 292.074 339.222C293.374 338.075 294.215 336.622 294.597 334.864C294.827 334.099 295.323 333.717 296.088 333.717L306.295 334.175C306.677 334.175 306.983 334.328 307.212 334.634C307.518 334.864 307.633 335.208 307.557 335.666C307.021 341.018 305.072 345.147 301.708 348.052C298.344 350.881 293.641 352.296 287.601 352.296C281.332 352.296 276.362 350.652 272.692 347.364C269.099 344 267.302 339.451 267.302 333.717V310.436C267.302 304.854 269.099 300.382 272.692 297.018C276.362 293.577 281.332 291.857 287.601 291.857C293.871 291.857 298.802 293.577 302.396 297.018C306.066 300.382 307.901 304.854 307.901 310.436V325.574ZM287.601 303.325C285.537 303.325 283.855 304.09 282.555 305.619C281.255 307.148 280.606 309.098 280.606 311.468V316.629C280.606 317.011 280.797 317.202 281.179 317.202H294.138C294.521 317.202 294.712 317.011 294.712 316.629V311.468C294.712 309.021 294.062 307.072 292.762 305.619C291.462 304.09 289.742 303.325 287.601 303.325ZM354.231 351.378C353.313 351.378 352.816 350.958 352.74 350.117L337.487 272.59L337.372 272.131C337.372 271.443 337.792 271.099 338.633 271.099H349.643C350.561 271.099 351.058 271.519 351.134 272.36L359.162 320.184C359.238 320.413 359.353 320.528 359.506 320.528C359.659 320.528 359.774 320.413 359.85 320.184L367.075 272.36C367.152 271.519 367.649 271.099 368.566 271.099H377.741C378.658 271.099 379.155 271.519 379.232 272.36L387.03 320.184C387.107 320.413 387.222 320.528 387.375 320.528C387.527 320.528 387.642 320.413 387.719 320.184L394.944 272.36C395.02 271.519 395.517 271.099 396.435 271.099H407.1C408.094 271.099 408.515 271.596 408.362 272.59L393.797 350.117C393.72 350.958 393.223 351.378 392.306 351.378H382.558C381.64 351.378 381.143 350.958 381.067 350.117L373.383 301.376C373.306 301.07 373.192 300.917 373.039 300.917C372.886 300.917 372.771 301.07 372.695 301.376L365.584 350.117C365.508 350.958 365.011 351.378 364.093 351.378H354.231ZM450.809 325.574C450.809 325.956 450.656 326.3 450.35 326.606C450.121 326.836 449.815 326.95 449.432 326.95H424.087C423.705 326.95 423.514 327.141 423.514 327.524V332.685C423.514 335.055 424.164 337.004 425.463 338.533C426.763 340.063 428.445 340.827 430.509 340.827C432.268 340.827 433.759 340.292 434.982 339.222C436.282 338.075 437.123 336.622 437.505 334.864C437.735 334.099 438.232 333.717 438.996 333.717L449.203 334.175C449.585 334.175 449.891 334.328 450.121 334.634C450.426 334.864 450.541 335.208 450.465 335.666C449.929 341.018 447.98 345.147 444.616 348.052C441.252 350.881 436.55 352.296 430.509 352.296C424.24 352.296 419.27 350.652 415.6 347.364C412.007 344 410.21 339.451 410.21 333.717V310.436C410.21 304.854 412.007 300.382 415.6 297.018C419.27 293.577 424.24 291.857 430.509 291.857C436.779 291.857 441.71 293.577 445.304 297.018C448.974 300.382 450.809 304.854 450.809 310.436V325.574ZM430.509 303.325C428.445 303.325 426.763 304.09 425.463 305.619C424.164 307.148 423.514 309.098 423.514 311.468V316.629C423.514 317.011 423.705 317.202 424.087 317.202H437.046C437.429 317.202 437.62 317.011 437.62 316.629V311.468C437.62 309.021 436.97 307.072 435.67 305.619C434.371 304.09 432.65 303.325 430.509 303.325ZM460.876 351.378C460.494 351.378 460.15 351.263 459.844 351.034C459.614 350.728 459.5 350.384 459.5 350.002V272.475C459.5 272.093 459.614 271.787 459.844 271.558C460.15 271.252 460.494 271.099 460.876 271.099H471.427C471.809 271.099 472.115 271.252 472.344 271.558C472.65 271.787 472.803 272.093 472.803 272.475V350.002C472.803 350.384 472.65 350.728 472.344 351.034C472.115 351.263 471.809 351.378 471.427 351.378H460.876ZM483.723 351.378C483.341 351.378 482.997 351.263 482.691 351.034C482.462 350.728 482.347 350.384 482.347 350.002V272.475C482.347 272.093 482.462 271.787 482.691 271.558C482.997 271.252 483.341 271.099 483.723 271.099H494.274C494.656 271.099 494.962 271.252 495.192 271.558C495.498 271.787 495.65 272.093 495.65 272.475V350.002C495.65 350.384 495.498 350.728 495.192 351.034C494.962 351.263 494.656 351.378 494.274 351.378H483.723Z" fill="#222831"/>
</svg>
