<svg width="785" height="587" viewBox="0 0 785 587" fill="none" xmlns="http://www.w3.org/2000/svg">
<path d="M229.434 122.47C227.905 119.804 229.83 116.481 232.904 116.481H249.704C251.846 116.481 253.825 117.622 254.898 119.476L348.599 281.406C349.247 282.526 350.442 283.215 351.736 283.215C353.048 283.215 354.258 282.506 354.899 281.361L387.958 222.295C388.594 221.159 389.793 220.456 391.095 220.456C392.396 220.456 393.596 221.159 394.232 222.295L427.405 281.565C427.976 282.584 429.052 283.215 430.22 283.215C431.369 283.215 432.431 282.604 433.009 281.611L527.579 118.968C528.475 117.428 530.121 116.481 531.902 116.481H550.236C554.108 116.481 556.511 120.692 554.54 124.025L436.547 323.639C435.227 325.871 432.827 327.24 430.234 327.24C427.607 327.24 425.181 325.835 423.874 323.557L395.314 273.781C394.079 271.629 391.519 270.619 389.148 271.349C387.842 271.751 386.742 272.64 386.075 273.832L358.503 323.128C357.082 325.667 354.4 327.24 351.49 327.24C348.611 327.24 345.952 325.7 344.52 323.202L229.434 122.47Z" fill="#222831"/>
<path d="M293.619 98.472C292.493 96.4722 293.938 94 296.233 94H484.739C487.095 94 488.532 96.5919 487.283 98.59L476.982 115.071C476.434 115.948 475.473 116.481 474.438 116.481H339.335C337.037 116.481 335.592 118.959 336.724 120.959L347.379 139.782C347.911 140.722 348.909 141.304 349.989 141.304H458.194C460.518 141.304 461.959 143.832 460.776 145.832L450.744 162.781C450.204 163.694 449.223 164.253 448.163 164.253H365.657C363.338 164.253 361.896 166.772 363.07 168.772L384.816 205.822C385.367 206.76 385.367 207.923 384.815 208.861L372.48 229.83C371.971 230.696 371.041 231.228 370.037 231.228C369.013 231.228 368.069 230.676 367.566 229.784L293.619 98.472Z" fill="#222831"/>
<path d="M72.36 440.84C72.36 441.44 72.12 441.98 71.64 442.46C71.28 442.82 70.8 443 70.2 443H31.5C30.9 443 30.6 443.3 30.6 443.9V477.92C30.6 478.52 30.9 478.82 31.5 478.82H54.36C54.96 478.82 55.44 479.06 55.8 479.54C56.28 479.9 56.52 480.38 56.52 480.98V494.84C56.52 495.44 56.28 495.98 55.8 496.46C55.44 496.82 54.96 497 54.36 497H31.5C30.9 497 30.6 497.3 30.6 497.9V548.84C30.6 549.44 30.36 549.98 29.88 550.46C29.52 550.82 29.04 551 28.44 551H11.88C11.28 551 10.74 550.82 10.26 550.46C9.9 549.98 9.72 549.44 9.72 548.84V427.16C9.72 426.56 9.9 426.08 10.26 425.72C10.74 425.24 11.28 425 11.88 425H70.2C70.8 425 71.28 425.24 71.64 425.72C72.12 426.08 72.36 426.56 72.36 427.16V440.84ZM107.962 552.44C98.002 552.44 90.142 549.8 84.382 544.52C78.742 539.24 75.922 532.1 75.922 523.1V486.92C75.922 478.04 78.802 470.96 84.562 465.68C90.322 460.28 98.122 457.58 107.962 457.58C117.922 457.58 125.782 460.28 131.542 465.68C137.302 470.96 140.182 478.04 140.182 486.92V523.1C140.182 532.1 137.302 539.24 131.542 544.52C125.902 549.8 118.042 552.44 107.962 552.44ZM107.962 534.26C111.322 534.26 114.022 533.12 116.062 530.84C118.222 528.44 119.302 525.32 119.302 521.48V488.36C119.302 484.64 118.222 481.58 116.062 479.18C114.022 476.78 111.322 475.58 107.962 475.58C104.602 475.58 101.902 476.78 99.862 479.18C97.822 481.46 96.802 484.52 96.802 488.36V521.48C96.802 525.32 97.822 528.44 99.862 530.84C101.902 533.12 104.602 534.26 107.962 534.26ZM192.677 457.94C195.917 457.94 198.437 458.54 200.237 459.74C201.197 460.34 201.557 461.24 201.317 462.44L198.437 479.18C198.317 480.62 197.477 481.04 195.917 480.44C194.237 479.96 192.677 479.72 191.237 479.72C189.797 479.72 188.477 479.9 187.277 480.26C183.917 480.74 181.157 482.66 178.997 486.02C176.957 489.26 175.937 493.16 175.937 497.72V548.66C175.937 549.26 175.697 549.8 175.217 550.28C174.857 550.64 174.377 550.82 173.777 550.82H157.217C156.617 550.82 156.077 550.64 155.597 550.28C155.237 549.8 155.057 549.26 155.057 548.66V461.18C155.057 460.58 155.237 460.1 155.597 459.74C156.077 459.26 156.617 459.02 157.217 459.02H173.777C174.377 459.02 174.857 459.26 175.217 459.74C175.697 460.1 175.937 460.58 175.937 461.18V469.46C175.937 469.94 176.057 470.24 176.297 470.36C176.537 470.36 176.717 470.12 176.837 469.64C180.077 461.84 185.357 457.94 192.677 457.94ZM250.003 471.62C250.003 472.22 249.763 472.76 249.283 473.24C248.923 473.6 248.443 473.78 247.843 473.78H236.683C236.083 473.78 235.783 474.08 235.783 474.68V521.84C235.783 526.04 236.563 528.98 238.123 530.66C239.683 532.22 242.023 532.94 245.143 532.82H246.403C247.003 532.82 247.483 533.06 247.843 533.54C248.323 533.9 248.563 534.38 248.563 534.98V548.84C248.563 549.44 248.323 549.98 247.843 550.46C247.483 550.82 247.003 551 246.403 551H240.283C232.123 551 225.943 549.5 221.743 546.5C217.663 543.5 215.623 537.86 215.623 529.58V474.68C215.623 474.08 215.323 473.78 214.723 473.78H208.423C207.823 473.78 207.283 473.6 206.803 473.24C206.443 472.76 206.263 472.22 206.263 471.62V461.18C206.263 460.58 206.443 460.1 206.803 459.74C207.283 459.26 207.823 459.02 208.423 459.02H214.723C215.323 459.02 215.623 458.72 215.623 458.12V438.32C215.623 437.72 215.803 437.24 216.163 436.88C216.643 436.4 217.183 436.16 217.783 436.16H233.623C234.223 436.16 234.703 436.4 235.063 436.88C235.543 437.24 235.783 437.72 235.783 438.32V458.12C235.783 458.72 236.083 459.02 236.683 459.02H247.843C248.443 459.02 248.923 459.26 249.283 459.74C249.763 460.1 250.003 460.58 250.003 461.18V471.62ZM303.864 461.18C303.864 460.58 304.044 460.1 304.404 459.74C304.884 459.26 305.424 459.02 306.024 459.02H322.584C323.184 459.02 323.664 459.26 324.024 459.74C324.504 460.1 324.744 460.58 324.744 461.18V548.84C324.744 549.44 324.504 549.98 324.024 550.46C323.664 550.82 323.184 551 322.584 551H306.024C305.424 551 304.884 550.82 304.404 550.46C304.044 549.98 303.864 549.44 303.864 548.84V544.88C303.864 544.52 303.744 544.28 303.504 544.16C303.264 544.04 303.024 544.16 302.784 544.52C299.304 549.68 293.724 552.26 286.044 552.26C278.724 552.26 272.784 550.1 268.224 545.78C263.784 541.34 261.564 534.56 261.564 525.44V461.18C261.564 460.58 261.744 460.1 262.104 459.74C262.584 459.26 263.124 459.02 263.724 459.02H280.284C280.884 459.02 281.364 459.26 281.724 459.74C282.204 460.1 282.444 460.58 282.444 461.18V520.94C282.444 529.94 285.924 534.44 292.884 534.44C296.364 534.44 299.064 533.18 300.984 530.66C302.904 528.02 303.864 524.48 303.864 520.04V461.18ZM380.63 457.58C388.43 457.58 394.31 460.22 398.27 465.5C402.35 470.66 404.39 478.04 404.39 487.64V548.84C404.39 549.44 404.15 549.98 403.67 550.46C403.31 550.82 402.83 551 402.23 551H385.67C385.07 551 384.53 550.82 384.05 550.46C383.69 549.98 383.51 549.44 383.51 548.84V489.26C383.51 484.94 382.61 481.58 380.81 479.18C379.01 476.78 376.43 475.58 373.07 475.58C369.59 475.58 366.89 476.84 364.97 479.36C363.05 481.88 362.09 485.36 362.09 489.8V548.84C362.09 549.44 361.85 549.98 361.37 550.46C361.01 550.82 360.53 551 359.93 551H343.37C342.77 551 342.23 550.82 341.75 550.46C341.39 549.98 341.21 549.44 341.21 548.84V461.18C341.21 460.58 341.39 460.1 341.75 459.74C342.23 459.26 342.77 459.02 343.37 459.02H359.93C360.53 459.02 361.01 459.26 361.37 459.74C361.85 460.1 362.09 460.58 362.09 461.18V464.78C362.09 465.14 362.21 465.38 362.45 465.5C362.81 465.5 363.17 465.26 363.53 464.78C367.61 459.98 373.31 457.58 380.63 457.58ZM482.591 510.5C482.591 511.1 482.351 511.64 481.871 512.12C481.511 512.48 481.031 512.66 480.431 512.66H440.651C440.051 512.66 439.751 512.96 439.751 513.56V521.66C439.751 525.38 440.771 528.44 442.811 530.84C444.851 533.24 447.491 534.44 450.731 534.44C453.491 534.44 455.831 533.6 457.751 531.92C459.791 530.12 461.111 527.84 461.711 525.08C462.071 523.88 462.851 523.28 464.051 523.28L480.071 524C480.671 524 481.151 524.24 481.511 524.72C481.991 525.08 482.171 525.62 482.051 526.34C481.211 534.74 478.151 541.22 472.871 545.78C467.591 550.22 460.211 552.44 450.731 552.44C440.891 552.44 433.091 549.86 427.331 544.7C421.691 539.42 418.871 532.28 418.871 523.28V486.74C418.871 477.98 421.691 470.96 427.331 465.68C433.091 460.28 440.891 457.58 450.731 457.58C460.571 457.58 468.311 460.28 473.951 465.68C479.711 470.96 482.591 477.98 482.591 486.74V510.5ZM450.731 475.58C447.491 475.58 444.851 476.78 442.811 479.18C440.771 481.58 439.751 484.64 439.751 488.36V496.46C439.751 497.06 440.051 497.36 440.651 497.36H460.991C461.591 497.36 461.891 497.06 461.891 496.46V488.36C461.891 484.52 460.871 481.46 458.831 479.18C456.791 476.78 454.091 475.58 450.731 475.58ZM555.307 551C553.867 551 553.087 550.34 552.967 549.02L529.027 427.34L528.847 426.62C528.847 425.54 529.507 425 530.827 425H548.107C549.547 425 550.327 425.66 550.447 426.98L563.047 502.04C563.167 502.4 563.347 502.58 563.587 502.58C563.827 502.58 564.007 502.4 564.127 502.04L575.467 426.98C575.587 425.66 576.367 425 577.807 425H592.207C593.647 425 594.427 425.66 594.547 426.98L606.787 502.04C606.907 502.4 607.087 502.58 607.327 502.58C607.567 502.58 607.747 502.4 607.867 502.04L619.207 426.98C619.327 425.66 620.107 425 621.547 425H638.287C639.847 425 640.507 425.78 640.267 427.34L617.407 549.02C617.287 550.34 616.507 551 615.067 551H599.767C598.327 551 597.547 550.34 597.427 549.02L585.367 472.52C585.247 472.04 585.067 471.8 584.827 471.8C584.587 471.8 584.407 472.04 584.287 472.52L573.127 549.02C573.007 550.34 572.227 551 570.787 551H555.307ZM706.888 510.5C706.888 511.1 706.648 511.64 706.168 512.12C705.808 512.48 705.328 512.66 704.728 512.66H664.948C664.348 512.66 664.048 512.96 664.048 513.56V521.66C664.048 525.38 665.068 528.44 667.108 530.84C669.148 533.24 671.788 534.44 675.028 534.44C677.788 534.44 680.128 533.6 682.048 531.92C684.088 530.12 685.408 527.84 686.008 525.08C686.368 523.88 687.148 523.28 688.348 523.28L704.368 524C704.968 524 705.448 524.24 705.808 524.72C706.288 525.08 706.468 525.62 706.348 526.34C705.508 534.74 702.448 541.22 697.168 545.78C691.888 550.22 684.508 552.44 675.028 552.44C665.188 552.44 657.388 549.86 651.628 544.7C645.988 539.42 643.168 532.28 643.168 523.28V486.74C643.168 477.98 645.988 470.96 651.628 465.68C657.388 460.28 665.188 457.58 675.028 457.58C684.868 457.58 692.608 460.28 698.248 465.68C704.008 470.96 706.888 477.98 706.888 486.74V510.5ZM675.028 475.58C671.788 475.58 669.148 476.78 667.108 479.18C665.068 481.58 664.048 484.64 664.048 488.36V496.46C664.048 497.06 664.348 497.36 664.948 497.36H685.288C685.888 497.36 686.188 497.06 686.188 496.46V488.36C686.188 484.52 685.168 481.46 683.128 479.18C681.088 476.78 678.388 475.58 675.028 475.58ZM722.689 551C722.089 551 721.549 550.82 721.069 550.46C720.709 549.98 720.529 549.44 720.529 548.84V427.16C720.529 426.56 720.709 426.08 721.069 425.72C721.549 425.24 722.089 425 722.689 425H739.249C739.849 425 740.329 425.24 740.689 425.72C741.169 426.08 741.409 426.56 741.409 427.16V548.84C741.409 549.44 741.169 549.98 740.689 550.46C740.329 550.82 739.849 551 739.249 551H722.689ZM758.548 551C757.948 551 757.408 550.82 756.928 550.46C756.568 549.98 756.388 549.44 756.388 548.84V427.16C756.388 426.56 756.568 426.08 756.928 425.72C757.408 425.24 757.948 425 758.548 425H775.108C775.708 425 776.188 425.24 776.548 425.72C777.028 426.08 777.268 426.56 777.268 427.16V548.84C777.268 549.44 777.028 549.98 776.548 550.46C776.188 550.82 775.708 551 775.108 551H758.548Z" fill="#222831"/>
</svg>
